<svg width="32" height="32" viewBox="0 0 32 32" fill="none" xmlns="http://www.w3.org/2000/svg">
<g clip-path="url(#clip0_195_721)">
<path d="M26.6667 15.9998C26.6667 15.2425 26.5867 14.5038 26.4347 13.7918L28.88 11.6425L26.2133 7.02384L23.1173 8.07184C22.024 7.0905 20.7347 6.32784 19.304 5.8625L18.6667 2.6665H13.3333L12.6933 5.86117C11.2667 6.32784 9.97333 7.08784 8.88266 8.0705L5.78666 7.02384L3.12 11.6425L5.56533 13.7918C5.41333 14.5038 5.33333 15.2425 5.33333 15.9998C5.33333 16.7572 5.41333 17.4958 5.56533 18.2078L3.12 20.3572L5.78666 24.9758L8.88266 23.9278C9.97599 24.9092 11.2653 25.6718 12.696 26.1372L13.3333 29.3332H18.6667L19.3067 26.1385C20.7333 25.6718 22.024 24.9118 23.1173 23.9292L26.2133 24.9772L28.88 20.3585L26.4347 18.2078C26.5853 17.4945 26.6667 16.7545 26.6667 15.9985V15.9998ZM16 21.3332C13.0533 21.3332 10.6667 18.9465 10.6667 15.9998C10.6667 13.0532 13.0533 10.6665 16 10.6665C18.9467 10.6665 21.3333 13.0532 21.3333 15.9998C21.3333 18.9465 18.9467 21.3332 16 21.3332Z" fill="#5CB85C"/>
</g>
<defs>
<clipPath id="clip0_195_721">
<rect width="32" height="32" fill="white"/>
</clipPath>
</defs>
</svg>
