<svg width="26" height="27" viewBox="0 0 26 27" fill="none" xmlns="http://www.w3.org/2000/svg">
<path d="M23.5467 13.3333C23.5467 12.576 23.4667 11.8373 23.3147 11.1253L25.76 8.976L23.0933 4.35733L19.9973 5.40533C18.904 4.424 17.6147 3.66133 16.184 3.196L15.5467 0H10.2133L9.57333 3.19467C8.14667 3.66133 6.85333 4.42133 5.76267 5.404L2.66667 4.35733L0 8.976L2.44533 11.1253C2.29333 11.8373 2.21333 12.576 2.21333 13.3333C2.21333 14.0907 2.29333 14.8293 2.44533 15.5413L0 17.6907L2.66667 22.3093L5.76267 21.2613C6.856 22.2427 8.14533 23.0053 9.576 23.4707L10.2133 26.6667H15.5467L16.1867 23.472C17.6133 23.0053 18.904 22.2453 19.9973 21.2627L23.0933 22.3107L25.76 17.692L23.3147 15.5413C23.4653 14.828 23.5467 14.088 23.5467 13.332V13.3333ZM12.88 18.6667C9.93333 18.6667 7.54667 16.28 7.54667 13.3333C7.54667 10.3867 9.93333 8 12.88 8C15.8267 8 18.2133 10.3867 18.2133 13.3333C18.2133 16.28 15.8267 18.6667 12.88 18.6667Z" fill="#5CB85C"/>
</svg>
