<svg width="37" height="45" viewBox="0 0 37 45" fill="none" xmlns="http://www.w3.org/2000/svg">
<path d="M18.5 7.54395C12.4104 7.54395 7.47192 9.55019 7.47192 12.0377V15.7189C7.47192 18.2189 12.4104 20.2127 18.5 20.2127C24.5896 20.2127 29.5229 18.2064 29.5229 15.7189V12.0377C29.528 9.55019 24.5896 7.54395 18.5 7.54395Z" fill="#5CB85C"/>
<path d="M18.5 22.3627C12.6828 22.3627 7.89331 20.5314 7.47192 18.2002C7.47192 18.3127 7.47192 24.2939 7.47192 24.2939C7.47192 26.7939 12.4104 28.7814 18.5 28.7814C24.5896 28.7814 29.5229 26.7752 29.5229 24.2939C29.5229 24.2939 29.5229 18.3127 29.5229 18.2002C29.1015 20.5314 24.3172 22.3627 18.5 22.3627Z" fill="#5CB85C"/>
<path d="M29.5176 26.875C29.0962 29.2 24.3171 31.0375 18.505 31.0375C12.6929 31.0375 7.89832 29.2 7.47693 26.875V32.9687C7.47693 35.4687 12.4154 37.4562 18.505 37.4562C24.5946 37.4562 29.5279 35.45 29.5279 32.9687L29.5176 26.875Z" fill="#5CB85C"/>
</svg>
