<svg width="23" height="30" viewBox="0 0 23 30" fill="none" xmlns="http://www.w3.org/2000/svg">
<path d="M11.0281 0C4.93847 0 0 2.00625 0 4.49375V8.175C0 10.675 4.93847 12.6687 11.0281 12.6687C17.1176 12.6687 22.051 10.6625 22.051 8.175V4.49375C22.0561 2.00625 17.1176 0 11.0281 0Z" fill="#5CB85C"/>
<path d="M11.0281 14.8187C5.21083 14.8187 0.421389 12.9875 0 10.6562C0 10.7688 0 16.75 0 16.75C0 19.25 4.93847 21.2375 11.0281 21.2375C17.1176 21.2375 22.051 19.2312 22.051 16.75C22.051 16.75 22.051 10.7688 22.051 10.6562C21.6296 12.9875 16.8453 14.8187 11.0281 14.8187Z" fill="#5CB85C"/>
<path d="M22.0457 19.3311C21.6243 21.6561 16.8451 23.4936 11.0331 23.4936C5.22098 23.4936 0.426394 21.6561 0.00500488 19.3311V25.4248C0.00500488 27.9248 4.94348 29.9123 11.0331 29.9123C17.1226 29.9123 22.056 27.9061 22.056 25.4248L22.0457 19.3311Z" fill="#5CB85C"/>
</svg>
