<svg width="33" height="29" viewBox="0 0 33 29" fill="none" xmlns="http://www.w3.org/2000/svg">
<path d="M32.175 23.5625H19.6732C19.635 24.6846 18.9147 25.375 17.985 25.375H14.85C13.8863 25.375 13.1474 24.3855 13.1603 23.5625H0.825C0.37125 23.5625 0 23.9703 0 24.4688V25.375C0 27.3687 1.485 29 3.3 29H29.7C31.515 29 33 27.3687 33 25.375V24.4688C33 23.9703 32.6288 23.5625 32.175 23.5625ZM29.7 2.71875C29.7 1.22344 28.5863 0 27.225 0H5.775C4.41375 0 3.3 1.22344 3.3 2.71875V21.75H29.7V2.71875ZM26.4 18.125H6.6V3.625H26.4V18.125Z" fill="#5CB85C"/>
</svg>
