<svg width="30" height="25" viewBox="0 0 30 25" fill="none" xmlns="http://www.w3.org/2000/svg">
<path d="M14.9992 25C14.4972 24.9989 14.0017 24.8975 13.5484 24.703C13.0951 24.5084 12.6952 24.2257 12.3776 23.875L1.75258 12.4168C0.635785 11.0371 0.0234268 9.37777 0.000658724 7.66959C-0.0221093 5.96141 0.545844 4.28928 1.62554 2.88573L2.05285 2.40657C2.69411 1.65085 3.52149 1.04004 4.46957 0.622428C5.41765 0.204812 6.46045 -0.00815929 7.51551 0.000351092C8.59453 0.0596357 9.64321 0.345797 10.5777 0.835957C11.5122 1.32612 12.3066 2.00668 12.8973 2.82323L14.9992 5.55236L17.1011 2.82323C17.6919 2.00668 18.4863 1.32612 19.4208 0.835957C20.3553 0.345797 21.4039 0.0596357 22.483 0.000351092C23.5359 -0.00980027 24.5772 0.20031 25.525 0.614188C26.4728 1.02807 27.3014 1.63445 27.9456 2.38573L28.3729 2.86489C29.4517 4.26635 30.0201 5.93587 29.9995 7.64186C29.9788 9.34786 29.3699 11.0058 28.2574 12.3856L17.6208 23.8438C17.3067 24.2002 16.9083 24.4889 16.4548 24.6889C16.0013 24.8889 15.504 24.9952 14.9992 25ZM7.28453 2.08366C6.60863 2.09607 5.94487 2.24807 5.34426 2.52796C4.74364 2.80784 4.22215 3.20818 3.81984 3.69822L3.45028 4.16696C2.70261 5.19493 2.31395 6.40153 2.33454 7.63082C2.35513 8.8601 2.78401 10.0556 3.56577 11.0627L14.1793 22.5209C14.2781 22.6345 14.402 22.7284 14.5431 22.7965C14.6843 22.8647 14.8396 22.9056 14.9992 22.9167C15.163 22.9125 15.3239 22.8768 15.4713 22.8122C15.6186 22.7475 15.7491 22.6553 15.8539 22.5417L26.4789 11.0835C27.2588 10.0701 27.6824 8.86843 27.6948 7.63487C27.7071 6.40131 27.3076 5.19294 26.5482 4.16696L26.1093 3.6878C25.6995 3.18812 25.1649 2.78251 24.549 2.50382C23.933 2.22513 23.2529 2.08119 22.5638 2.08366C21.8423 2.132 21.1435 2.33251 20.5236 2.66904C19.9038 3.00556 19.3802 3.4687 18.9952 4.02113L15.9462 7.96899C15.8398 8.10652 15.6981 8.21883 15.5333 8.29639C15.3684 8.37394 15.1852 8.41444 14.9992 8.41444C14.8133 8.41444 14.6301 8.37394 14.4652 8.29639C14.3003 8.21883 14.1587 8.10652 14.0522 7.96899L11.0033 4.02113C10.6182 3.4687 10.0947 3.00556 9.47483 2.66904C8.85498 2.33251 8.15616 2.132 7.43467 2.08366H7.28453Z" fill="#5CB85C"/>
</svg>
