<svg width="35" height="35" viewBox="0 0 35 35" fill="none" xmlns="http://www.w3.org/2000/svg">
<path d="M17.4965 35C16.7094 34.9998 15.9232 34.9488 15.1436 34.8475C13.6643 34.6558 12.2165 34.292 10.8339 33.7644C7.95403 32.659 5.44371 30.8533 3.56393 28.535C2.60994 27.3709 1.83046 26.0906 1.24704 24.7296C0.126074 22.1038 -0.248136 19.2516 0.160811 16.4506C0.569758 13.6496 1.74794 10.9952 3.58074 8.74551C4.53447 7.5737 5.65482 6.52882 6.91082 5.63974C7.43405 5.29488 8.08011 5.15304 8.71303 5.24407C9.34596 5.3351 9.9164 5.6519 10.3043 6.1278C10.6922 6.6037 10.8673 7.20159 10.7928 7.79564C10.7183 8.38969 10.4 8.93358 9.90478 9.31285C9.0061 9.94774 8.20404 10.6938 7.52066 11.5306C6.85867 12.3445 6.31156 13.2346 5.89283 14.1789C5.48266 15.1073 5.20185 16.081 5.05731 17.0762C4.76097 19.0891 5.03071 21.1394 5.84001 23.0254C6.25743 23.9974 6.81477 24.9118 7.49665 25.7432C8.17877 26.5849 8.97998 27.3362 9.87837 27.9767C10.7469 28.5949 11.6976 29.1052 12.7067 29.4948C13.7054 29.8771 14.7516 30.1408 15.8207 30.2797C16.8812 30.4168 17.9565 30.4229 19.0187 30.2976C20.1056 30.1672 21.1705 29.9088 22.1879 29.5284C24.2856 28.7354 26.1183 27.4333 27.4964 25.7567C28.8154 24.1454 29.6597 22.2397 29.9453 20.229C30.0912 19.2355 30.0993 18.2286 29.9693 17.2331C29.8317 16.2191 29.5549 15.2257 29.1458 14.2776C28.7251 13.2978 28.1637 12.3759 27.4772 11.5374C26.7992 10.7007 26.0019 9.95452 25.1074 9.31958C24.834 9.14215 24.6018 8.91499 24.4246 8.65171C24.2475 8.38842 24.1291 8.09444 24.0765 7.78739C24.024 7.48033 24.0383 7.16652 24.1188 6.86478C24.1992 6.56303 24.344 6.27956 24.5446 6.03136C24.7451 5.78316 24.9973 5.57534 25.2859 5.42036C25.5746 5.26537 25.8937 5.16642 26.2243 5.12943C26.5549 5.09244 26.89 5.11818 27.2097 5.2051C27.5294 5.29201 27.8269 5.43832 28.0846 5.63525C29.3389 6.52475 30.4569 7.57047 31.4075 8.74327C32.3656 9.91413 33.1491 11.2011 33.7364 12.5689C34.3003 13.8838 34.6819 15.2606 34.872 16.6658C35.3375 20.2428 34.5256 23.8632 32.5625 26.9651C30.5993 30.067 27.5947 32.4768 24.015 33.8205C22.608 34.3438 21.1358 34.6987 19.6333 34.8767C18.9245 34.9597 18.2109 34.9994 17.4965 35ZM17.5013 18.2109C16.8459 18.2109 16.2172 17.9678 15.7535 17.5351C15.2898 17.1025 15.029 16.5156 15.0284 15.9034V2.30971C15.0284 1.69714 15.2889 1.10965 15.7527 0.676499C16.2164 0.243344 16.8454 0 17.5013 0C18.1572 0 18.7862 0.243344 19.25 0.676499C19.7137 1.10965 19.9743 1.69714 19.9743 2.30971V15.9034C19.9743 16.516 19.7137 17.1034 19.25 17.5366C18.7862 17.9698 18.1572 18.2131 17.5013 18.2131V18.2109Z" fill="#49B7F4"/>
</svg>
