<svg width="30" height="32" viewBox="0 0 30 32" fill="none" xmlns="http://www.w3.org/2000/svg">
<path d="M26.161 0.698556L2.46156 13.7571C0.50148 14.8408 0.418828 18.0193 2.32914 19.1218L8.26049 22.5709L7.82788 27.817C7.59005 30.701 10.6898 32.1519 12.3589 29.9804L15.0276 26.502L20.835 29.8721C21.1414 30.0475 21.4701 30.1497 21.805 30.1774C22.2479 30.2139 22.6962 30.1194 23.1115 29.8971C23.8398 29.5066 24.3807 28.7502 24.5793 27.8591L29.7724 4.05651C30.3074 1.59118 28.1319 -0.384254 26.161 0.698556ZM10.4205 28.0308L10.7517 24.0154L12.6512 25.117L10.4205 28.0308ZM22.051 27.1938L14.0692 22.5618L22.6788 10.6119C23.3362 9.69612 22.3374 8.48732 21.5074 9.1886L9.13876 19.7021L3.54467 16.4497L27.2446 3.38497L22.051 27.1938Z" fill="#5CB85C"/>
</svg>
