<svg width="31" height="34" viewBox="0 0 31 34" fill="none" xmlns="http://www.w3.org/2000/svg">
<path d="M30.3537 9.15105C29.7799 8.35649 28.8926 7.85388 27.924 7.77557L7.88642 6.16504L7.52214 4.0707C7.18912 2.15836 5.68972 0.677493 3.79698 0.393366L3.4329 0.338224L1.26669 0.0120724C0.663209 -0.0778511 0.101657 0.344228 0.0121479 0.95666C-0.0775538 1.56961 0.339189 2.13957 0.942667 2.23008V2.22955L3.47341 2.61026L3.47399 2.61196C4.42489 2.75317 5.17967 3.49853 5.34718 4.46028L8.77694 24.1875C9.09877 26.0391 10.6833 27.3881 12.5361 27.3887H26.6307C27.2409 27.3887 27.7351 26.8866 27.7351 26.2681C27.7351 25.6491 27.2409 25.147 26.6307 25.147H12.5361C11.7559 25.1476 11.0869 24.5776 10.9515 23.798L10.4718 21.0377H26.1835C27.7389 21.0377 29.0883 19.9485 29.4376 18.4104L30.9144 11.9158C31.133 10.9557 30.9281 9.94666 30.3537 9.15105Z" fill="#5CB85C"/>
<path d="M10.2407 27.4194C8.5591 27.4194 7.19641 28.894 7.19641 30.7105C7.19641 32.5271 8.5591 34.0001 10.2407 34.0001C11.9222 34.0001 13.2857 32.5271 13.2857 30.7105C13.2856 28.894 11.9222 27.4194 10.2407 27.4194Z" fill="#5CB85C"/>
<path d="M23.8031 27.4194C21.9683 27.4194 20.4821 28.894 20.4821 30.7105C20.4821 32.5271 21.9683 34.0001 23.8031 34.0001C25.6375 34.0001 27.1249 32.5271 27.1249 30.7105C27.1249 28.894 25.6375 27.4194 23.8031 27.4194Z" fill="#5CB85C"/>
</svg>
