<svg width="37" height="36" viewBox="0 0 37 36" fill="none" xmlns="http://www.w3.org/2000/svg">
<g clip-path="url(#clip0_195_725)">
<path d="M35.1932 9.86006C34.5483 9.00394 33.5512 8.46239 32.4627 8.37802L9.94353 6.6427L9.53414 4.38609C9.15988 2.32559 7.47479 0.729984 5.34765 0.423844L4.93848 0.36443L2.504 0.0130077C1.82579 -0.0838829 1.19469 0.370898 1.0941 1.03078C0.993286 1.69123 1.46164 2.30534 2.13985 2.40286V2.4023L4.98401 2.8125L4.98466 2.81433C6.05332 2.96648 6.90158 3.76959 7.08983 4.80586L10.9443 26.0615C11.306 28.0566 13.0868 29.5101 15.1691 29.5107H31.0091C31.6949 29.5107 32.2503 28.9697 32.2503 28.3033C32.2503 27.6363 31.6949 27.0953 31.0091 27.0953H15.169C14.2922 27.096 13.5404 26.4819 13.3882 25.6418L12.849 22.6677H30.5066C32.2546 22.6677 33.7711 21.4941 34.1636 19.8368L35.8234 12.8391C36.0691 11.8046 35.8387 10.7173 35.1932 9.86006Z" fill="#5CB85C"/>
<path d="M16.1161 30.8057C14.6417 30.8057 13.447 31.9696 13.447 33.4036C13.447 34.8375 14.6417 36.0003 16.1161 36.0003C17.5904 36.0003 18.7859 34.8375 18.7859 33.4036C18.7858 31.9696 17.5904 30.8057 16.1161 30.8057Z" fill="#5CB85C"/>
<path d="M27.9758 30.8057C26.5011 30.8057 25.3066 31.9696 25.3066 33.4036C25.3066 34.8375 26.5011 36.0003 27.9758 36.0003C29.4501 36.0003 30.6456 34.8375 30.6456 33.4036C30.6456 31.9696 29.4501 30.8057 27.9758 30.8057Z" fill="#5CB85C"/>
</g>
<defs>
<clipPath id="clip0_195_725">
<rect width="37" height="36" fill="white"/>
</clipPath>
</defs>
</svg>
